<?xml version="1.0" encoding="UTF-8" standalone="no"?>
<svg
   width="27.312px"
   height="28.704px"
   viewBox="0 -1586 1509 1586"
   aria-hidden="true"
   style=""
   version="1.1"
   id="svg32"
   sodipodi:docname="about.svg"
   inkscape:version="1.1.2 (0a00cf5339, 2022-02-04)"
   xmlns:inkscape="http://www.inkscape.org/namespaces/inkscape"
   xmlns:sodipodi="http://sodipodi.sourceforge.net/DTD/sodipodi-0.dtd"
   xmlns:xlink="http://www.w3.org/1999/xlink"
   xmlns="http://www.w3.org/2000/svg"
   xmlns:svg="http://www.w3.org/2000/svg">
  <sodipodi:namedview
     id="namedview34"
     pagecolor="#ffffff"
     bordercolor="#666666"
     borderopacity="1.0"
     inkscape:pageshadow="2"
     inkscape:pageopacity="0.27843137"
     inkscape:pagecheckerboard="false"
     showgrid="false"
     inkscape:zoom="21.94816"
     inkscape:cx="14.055848"
     inkscape:cy="15.741638"
     inkscape:window-width="1920"
     inkscape:window-height="1001"
     inkscape:window-x="0"
     inkscape:window-y="0"
     inkscape:window-maximized="1"
     inkscape:current-layer="layer1" />
  <defs
     id="defs6">
    <linearGradient
       id="linearGradient1468"
       inkscape:swatch="solid">
      <stop
         style="stop-color:#afa0c1;stop-opacity:1;"
         offset="0"
         id="stop1466" />
    </linearGradient>
  </defs>
  <g
     inkscape:groupmode="layer"
     id="layer1"
     inkscape:label="Bg"
     style="display:inline">
    <rect
       id="rect649"
       width="1510.0857"
       height="1540.2229"
       x="4.0312662"
       y="-1538.416"
       style="stroke-width:55.25362228;fill-opacity:1;fill:#999999;stroke-miterlimit:4;stroke-dasharray:none" />
    <g
       stroke="currentColor"
       fill="currentColor"
       stroke-width="0"
       transform="matrix(2.4478305,0,0,-2.0260121,176.85428,-62.569947)"
       id="g11">
      <g
         data-mml-node="math"
         id="g9">
        <g
           data-mml-node="mo"
           id="g7">
          <path
             id="use5"
             d="m 226,668 q -36,0 -64,-12 -28,-12 -38,-24 l -10,-11 q 2,0 5,-1 3,-1 11,-4 8,-3 15,-9 7,-6 12,-16 5,-10 5,-24 0,-23 -15,-38 -15,-15 -38,-15 -23,0 -38,14 -15,14 -16,38 0,59 45,95 45,36 99,43 2,0 11,0 9,0 14,1 h 4 q 53,0 92,-13 39,-13 58,-36 19,-23 29,-44 10,-21 9,-45 0,-64 -55,-105 -94,-67 -114,-159 -5,-24 -5,-62 v -17 q 0,-19 -3,-22 -3,-3 -17,-4 -14,-1 -17,3 -3,4 -3,17 v 31 q 2,71 18,122 16,51 35,74 19,23 37,46 18,23 23,46 2,9 2,37 v 13 q 0,17 -2,28 -2,11 -11,25 -9,14 -27,21 -18,7 -51,7 z M 162,61 q 0,28 18,44 18,16 44,16 23,-2 40,-17 Q 281,89 281,61 281,31 264,16 247,1 222,1 197,1 180,16 163,31 162,61 Z" />
        </g>
      </g>
    </g>
  </g>
</svg>
