<?xml version="1.0" encoding="UTF-8" standalone="no"?>
<svg xmlns="http://www.w3.org/2000/svg" width="26.495119" height="47.969742" version="1.0">
  <path fill="#999" d="M12.99518 19.816857c-1.60868-.12466-2.92082-.711128-4.00116-1.788354-.88426-.881688-1.40834-1.916098-1.63272-3.22257-.0372-.216606-.06256-.398712-.05636-.404678.01658-.015936 2.3955-.323344 2.40772-.311128.0057.005706.06158.20799.12414.44952.41762 1.612046 1.21982 2.652674 2.39344 3.104844.48708.187662.83744.245342 1.47204.242342 1.15396-.005452 2.01642-.34024 2.81662-1.09334.60532-.569684.96244-1.151764 1.16762-1.903088.14-.512672.13984-1.609738-.00032-2.12132-.36554-1.33436-1.35774-2.292714-2.73316-2.63994-.56162-.1417842-1.5928-.1334502-2.30278.018612l-.4996.107002.02522-.15705c.02736-.1702922.24484-1.8223042.24468-1.8585262-.00006-.012154.15932-.015604.35416-.007664.76828.0313 1.79522-.209728 2.50728-.588466 1.13034-.601238 1.61126-1.39171 1.61354-2.652142.0017-.930562-.2367-1.53251-.84938-2.144672-.56658-.566094-1.1587-.837606-2.01204-.9226121-2.07016-.206218-3.60482 1.0074881-4.00406 3.1666581-.0462.24977-.07418.316234-.127.301682-.03728-.010266-.56494-.102126-1.17262-.204132-.60766-.102006-1.1216-.20081-1.14206-.21956-.08404-.077016.3085-1.339322.59176-1.90293.65918-1.3116161 1.8839-2.34929614 3.30118-2.79701414.7076-.22353 1.06658-.270138 2.06628-.268278.99988.001858 1.44176.06467 2.18762.31096.5092.168146 1.27018.556222 1.65956.84632204.41106.306244.94338.8536261 1.1839 1.2173901.77908 1.1783 1.02118 2.696.62304 3.905704-.33274 1.011002-1.07466 1.86429-2.12868 2.44819l-.42552.23573.43878.139028c.80992.256628 1.3594.566248 1.86706 1.0520542.95486.913788 1.42172 2.098564 1.42172 3.608022 0 1.623004-.5509 2.939354-1.72138 4.11318-1.19224 1.195632-2.58514 1.809452-4.40362 1.940566-.33776.024352-.6638.041556-.72458.038234-.06076-.003322-.2994-.02068-.53032-.038576zm2.16552 25.766401v-2.386486H7.07316v-2.243404l4.25368-6.434898 4.2537-6.4349.93912-.000602.93914-.000604v12.9047h2.51906v2.209708H17.4588v4.77297h-2.2981v-2.386484zm0-9.114258v-4.518068l-.10634.156476c-.26122.384438-5.7715 8.84439-5.7715 8.861024 0 .010248 1.32252.018632 2.93892.018632h2.93892V36.469z"/>
  <path fill="#999" fill-rule="evenodd" d="M1 22.75v2h24.5v-2H1z"/>
  <path d="m15.875 28.625-4.125 6.21875-4.15625 6.25v1.5625h7.5625c.291777.003885.527365.239473.53125.53125v4.25h1.25v-4.25c.003885-.291777.239473-.527365.53125-.53125h1.96875v-1.125h-1.96875c-.291777-.003885-.527365-.239473-.53125-.53125V28.625H15.875zm-.84375 2.78125c.160544-.035999.328737.003377.456617.106899.127881.103523.201415.25983.199633.424351V41c-.003885.291777-.239473.527365-.53125.53125h-2.9375c-.810532 0-1.55889.006563-2.09375 0-.2674299-.003281-.4726537.003484-.625 0-.0761732-.001742-.1424594-.029467-.1875-.03125-.0225203-.000891-.0412803.00151-.0625 0-.0106099-.000755-.0069644.003242-.03125 0-.0121428-.001621-.0618588.000165-.0625 0-.0003206-.000083-.1248392-.062419-.125-.0625-.0000804-.000041-.1249597-.09371-.125-.09375-.0000403-.00004-.15625-.37496-.15625-.375 0-.000065.0555027-.23657.0625-.25.0069973-.01343-.0025136-.02691 0-.03125.0051296-.008361.0253629-.021938.03125-.03125.0117741-.018624.0106605-.03043.03125-.0625.0411789-.06414.1115988-.163951.1875-.28125.1518024-.234599.3641108-.567212.625-.96875.521778-.803075 1.231084-1.88431 1.9375-2.96875 1.401694-2.151781 2.777569-4.279771 2.96875-4.5625l.03125-.03125.0625-.125c.075454-.126945.199733-.21733.34375-.25z"/>
  <path fill-rule="evenodd" d="M1.53125 23.28125v.9375h23.4375v-.9375H1.53125z"/>
  <path d="M13.5625.5c-.979092-.00182166-1.256065.06598553-1.9375.28125-1.283233.4053725-2.374119 1.3168224-2.96875 2.5-.1153816.2295771-.2890147.6862344-.40625 1.0625-.0274846.0882116-.0412674.1417115-.0625.21875.180065.0339165.3850822.0847258.625.125.2964223.0497579.5652506.0845388.78125.125.2404336-1.0852515.745339-1.9988814 1.5-2.59375.801519-.6318049 1.854684-.8953401 3-.78125.931201.0927622 1.67666.3959557 2.3125 1.03125.681721.6811445 1.001878 1.5033388 1 2.53125-.002521 1.3935117-.633856 2.4335745-1.875 3.09375-.783969.4169857-1.798873.6377039-2.65625.625-.016538.1438454-.042143.2960429-.0625.46875-.022546.1912788-.04327.277171-.0625.4375.762832-.1392577 1.650479-.1671308 2.3125 0 1.538428.388378 2.712765 1.526433 3.125 3.03125.188285.687238.18769 1.65644 0 2.34375-.225908.827227-.650541 1.533261-1.3125 2.15625-.882977.831005-1.935542 1.212835-3.1875 1.21875-.653836.003091-1.112385-.04046-1.65625-.25-1.353114-.521325-2.2445293-1.758848-2.6875-3.46875-.216.026593-.4746029.057983-.75.09375-.2422931.031468-.4852715.035105-.6875.0625.2177702 1.168891.6787618 2.05606 1.46875 2.84375.998605.995726 2.148137 1.539384 3.65625 1.65625.218406.016926.453325.02699.53125.03125-.047181-.002579.094332-.026284.21875-.03125.124418-.004966.275076.01171.4375 0 1.723375-.124257 2.949835-.69667 4.0625-1.8125 1.090497-1.093615 1.59375-2.242415 1.59375-3.75 0-1.407286-.394795-2.40033-1.25-3.21875-.453506-.433984-.930002-.6974819-1.6875-.9375l-.4375-.125c-.199576-.0538153-.347294-.2222443-.374613-.427135-.027318-.2048907.07111-.4061392.249613-.510365l.40625-.25a.51258893.51258893 0 0 1 .03125 0c.959936-.5317797 1.586199-1.2787494 1.875-2.15625.341377-1.0372359.159805-2.4235818-.53125-3.46875-.178129-.2694032-.71551-.8352394-1.0625-1.09375-.308393-.2297621-1.068535-.60752349-1.5-.75C14.879864.57676811 14.540671.50181766 13.5625.5z"/>
</svg>