<?xml version="1.0" encoding="utf-8"?>
<!-- Generator: Adobe Illustrator 27.3.1, SVG Export Plug-In . SVG Version: 6.00 Build 0)  -->
<svg version="1.1" id="Layer_1" xmlns="http://www.w3.org/2000/svg" xmlns:xlink="http://www.w3.org/1999/xlink" x="0px" y="0px"
	 viewBox="0 0 1000 1000" style="enable-background:new 0 0 1000 1000;" xml:space="preserve">
<g>
	<path d="M834.9,495.4c0-27.1-32-34.8-50.4-34.8c-31.4,0-50.3,27.7-56.8,40.2c-13.5-34.7-42.8-40.2-58.4-40.2
		c-56.4,0-86,68.8-86,82.3c0,5.3,5.9,5.3,5.9,5.3c3.9,0,5.5-1,6.5-5.9c18.3-57.3,54.1-69.7,72.5-69.7c10.2,0,29.3,4.2,29.3,35.1
		c0,16.8-9.2,52.9-29.3,128.2c-8.7,33.5-27.6,55.2-51.4,55.2c-3.3,0-15.6,0-26.6-6c13.2-2.7,25.1-14.1,25.1-29.2
		c0-14.6-11.9-18.9-20-18.9c-16.3,0-29.8,14.1-29.8,31.3c0,23.9,27.1,34.8,51,34.8c35.7,0,55.2-36.9,56.8-40.2
		c6.4,20,26,40.2,58.4,40.2c55.8,0,85.6-68.8,85.6-82.3c0-5.3-4.5-5.3-6-5.3c-4.5,0-5.5,2.1-6.4,5.9c-17.9,57.7-54.7,69.7-72,69.7
		c-21.2,0-29.8-16.2-29.8-34.6c0-11.9,3.3-23.8,9.2-47.5l18.5-73.7c3.2-14.1,15.6-62.7,53.6-62.7c2.7,0,15.6,0,26.5,6
		c-14.7,2.7-25.6,16.2-25.6,29.2c0,8.7,6,18.9,20.6,18.9C817.6,526.7,834.9,517.1,834.9,495.4z"/>
	<path d="M860.4,229.9v21.6H555.6L311,759.9c-3.7,8.1-4.8,10.4-13.4,10.4c-6,0-7.1-0.6-10.2-8.1l-106.8-235l-28,21.1
		c-4.8,4.3-6,4.3-7.5,4.3c-3.3,0-5.4-2.1-5.4-6c0-2.1,0.6-2.7,6.4-7.5l53.5-40.5c4.8-4.3,5.8-4.3,7.5-4.3c3.7,0,4.8,3.3,7,7.5
		l96,211.9l228.2-473.4c3-6.5,4.6-10.4,10.9-10.4c0.5,0,1.1,0,1.6,0.1v0H860.4z"/>
</g>
</svg>
